<svg width="279" height="115" viewBox="0 0 279 115" fill="none" xmlns="http://www.w3.org/2000/svg">
<g clip-path="url(#clip0_18_155)">
<path d="M66.2058 24.8461C66.2058 26.2265 65.0866 27.3192 63.7378 27.3192C63.336 27.3192 62.9343 27.2042 62.5899 27.0317C56.9364 24.0122 50.5081 22.488 43.5059 22.488C30.9936 22.488 20.4902 26.7729 12.3114 35.1987C4.13248 43.5958 0 54.6673 0 68.0969C0 81.5265 4.10379 92.6843 12.2253 101.484C20.4902 110.428 30.9936 114.942 43.4772 114.942C50.4794 114.942 56.9077 113.39 62.5612 110.37C62.9343 110.169 63.336 110.082 63.7378 110.082C65.1153 110.082 66.2058 111.204 66.2058 112.556V115.029H89.5945V22.5168H66.2058V24.8749V24.8461ZM59.8636 86.4153C55.6163 90.8151 50.8525 92.8856 44.9408 92.8856C39.029 92.8856 34.2652 90.7001 30.0753 86.214C25.7706 81.6128 23.6757 75.6601 23.6757 68.0969C23.6757 60.5338 25.7132 54.9261 29.8744 50.7564C34.093 46.529 38.8568 44.5448 44.8834 44.5448C50.9099 44.5448 55.6737 46.6728 59.8923 51.0152C64.1683 55.4438 66.2345 61.224 66.2345 68.7296C66.2345 76.2352 64.1683 82.0154 59.8923 86.4153H59.8636Z" fill="#399CA2"/>
<path d="M255.611 0V24.8462C255.611 26.2266 254.492 27.3193 253.143 27.3193C252.742 27.3193 252.34 27.2043 251.995 27.0318C246.342 24.0123 239.914 22.4881 232.911 22.4881C220.399 22.4881 209.896 26.7729 201.717 35.1988C193.567 43.5959 189.434 54.6387 189.434 68.0683C189.434 81.4979 193.538 92.6557 201.659 101.455C209.924 110.399 220.428 114.914 232.911 114.914C239.914 114.914 246.342 113.361 251.995 110.341C252.368 110.14 252.77 110.054 253.172 110.054C254.549 110.054 255.64 111.175 255.64 112.527V114.914H279.029V0H255.64H255.611ZM249.298 86.4154C245.051 90.8152 240.287 92.8857 234.375 92.8857C228.463 92.8857 223.699 90.7002 219.509 86.2141C215.205 81.6129 213.11 75.6602 213.11 68.097C213.11 60.5339 215.147 54.9262 219.309 50.7564C223.527 46.5291 228.291 44.5449 234.318 44.5449C240.344 44.5449 245.108 46.6729 249.326 51.0153C253.602 55.4439 255.669 61.2241 255.669 68.7297C255.669 76.2353 253.602 82.0155 249.326 86.4154H249.298Z" fill="#399CA2"/>
<path d="M127.131 28.6134C126.529 29.1023 125.955 29.1023 125.61 29.016C125.094 28.8435 124.893 28.6997 124.635 28.2396C124.52 28.067 124.376 26.4279 124.405 24.875V22.5457H100.988V115.029H124.376L124.319 59.7862C124.319 59.4699 124.319 60.1025 124.319 59.7862C124.319 50.6702 132.01 43.2508 141.48 43.2508C150.95 43.2508 158.728 50.2388 158.728 59.3836V115.029H181.973V61.5116C181.973 59.9588 181.915 58.4634 181.829 56.9968C181.829 56.8817 181.829 56.7955 181.829 56.6804C181.829 44.4299 175.315 33.7322 165.586 27.8082C161.052 24.76 153.619 22.8907 147.908 22.8907C147.908 22.8907 136.171 22.2868 127.16 28.6422L127.131 28.6134Z" fill="#399CA2"/>
</g>
<defs>
<clipPath id="clip0_18_155">
<rect width="279" height="115" fill="white"/>
</clipPath>
</defs>
</svg>
