<svg width="68" height="66" viewBox="0 0 68 66" fill="none" xmlns="http://www.w3.org/2000/svg">
<path d="M60.7675 20.5289C61.2256 20.1636 61.5754 19.7194 61.8212 19.2005C62.0628 18.6815 62.1877 18.0962 62.1877 17.4485C62.1877 16.1076 61.7504 15.1196 60.8758 14.4844C60.0011 13.8492 58.7391 13.5337 57.0855 13.5337H53.5661V21.6581H56.8856C57.702 21.6581 58.4392 21.5626 59.0973 21.3675C59.7554 21.1724 60.3093 20.8943 60.7675 20.5289Z" fill="black"/>
<path d="M0.974121 0V66.0001H67.1899V0H0.974121ZM41.2334 12.99H51.5127V13.5712H41.9123V21.2638H50.0008V21.8326H41.9123V29.7702H51.5377L51.5127 30.3514H41.2334V12.9941V12.99ZM29.6962 12.99H33.8571C35.823 12.99 37.3141 13.4093 38.3346 14.2479C39.355 15.0865 39.8631 16.3485 39.8631 18.0257C39.8631 18.7564 39.7215 19.4372 39.4341 20.0558C39.1509 20.6785 38.7427 21.214 38.2138 21.6624C37.6848 22.1108 37.0517 22.4595 36.3145 22.7127C35.5773 22.9618 34.7568 23.0905 33.8571 23.0905H30.3751V30.3514H29.6921V12.9941L29.6962 12.99ZM13.7649 27.2752C13.5234 27.8896 13.1652 28.4251 12.6987 28.8818C12.2322 29.3385 11.6616 29.6955 10.9911 29.957C10.3163 30.2186 9.55411 30.3473 8.69195 30.3473C8.10468 30.3473 7.57569 30.2975 7.10088 30.1978C6.62606 30.0982 6.18877 29.9529 5.78893 29.7619C5.38909 29.5709 5.02255 29.3426 4.68519 29.0686C4.35198 28.7946 4.03125 28.4833 3.72721 28.1387L3.88965 27.8979C3.9313 27.8564 3.96462 27.8273 3.99377 27.8066C4.02293 27.7858 4.0646 27.7775 4.12292 27.7775C4.18123 27.7775 4.26034 27.8273 4.36447 27.927C4.4686 28.0266 4.60186 28.1511 4.76847 28.3006C4.93507 28.4501 5.13085 28.612 5.36409 28.7822C5.59317 28.9565 5.86805 29.1143 6.18876 29.2637C6.5053 29.4132 6.876 29.5377 7.2925 29.6374C7.70901 29.737 8.18383 29.7868 8.70863 29.7868C9.45833 29.7868 10.1331 29.6706 10.7287 29.4423C11.3243 29.2139 11.8241 28.8984 12.2322 28.4999C12.6404 28.1013 12.9528 27.6364 13.1694 27.105C13.386 26.5736 13.4901 26.0048 13.4901 25.4029C13.4901 24.7594 13.361 24.228 13.1069 23.8087C12.8528 23.3894 12.5154 23.0407 12.0989 22.7584C11.6824 22.4761 11.2035 22.2394 10.6703 22.0526C10.1331 21.8617 9.58741 21.6831 9.02929 21.5088C8.47118 21.3344 7.92558 21.1476 7.38829 20.94C6.851 20.7366 6.37616 20.4751 5.95966 20.1554C5.54316 19.8357 5.20582 19.4414 4.95175 18.9722C4.69769 18.5031 4.56855 17.9136 4.56855 17.2037C4.56855 16.6474 4.67685 16.116 4.88927 15.6095C5.10585 15.1031 5.41406 14.6547 5.8264 14.2645C6.23458 13.8742 6.73855 13.5629 7.33831 13.3304C7.93808 13.0979 8.62529 12.9817 9.39999 12.9817C10.2746 12.9817 11.0494 13.1187 11.7241 13.3927C12.3988 13.6666 13.0277 14.0943 13.6108 14.6713L13.4609 14.937C13.4109 15.0159 13.3401 15.0574 13.2485 15.0574C13.1568 15.0574 13.0319 14.9785 12.8695 14.8208C12.7071 14.663 12.4822 14.4886 12.1948 14.2977C11.9074 14.1067 11.5325 13.9282 11.0785 13.7746C10.6245 13.6168 10.0622 13.538 9.39582 13.538C8.72941 13.538 8.11717 13.6376 7.59237 13.8327C7.06758 14.032 6.62607 14.2977 6.27204 14.6339C5.91801 14.9702 5.64731 15.3605 5.46821 15.8005C5.28495 16.2406 5.19748 16.7014 5.19748 17.183C5.19748 17.8015 5.32661 18.3205 5.58068 18.7356C5.83475 19.1508 6.17626 19.4995 6.59692 19.7776C7.01759 20.0599 7.49659 20.2966 8.02556 20.4917C8.55868 20.6868 9.10428 20.8736 9.66656 21.0521C10.2288 21.2348 10.7745 21.4258 11.3076 21.6333C11.8407 21.8368 12.3155 22.0983 12.7362 22.4138C13.1569 22.7293 13.4943 23.1154 13.7525 23.5804C14.0066 24.0412 14.1356 24.6182 14.1356 25.2991C14.1356 25.9799 14.0148 26.6566 13.7691 27.271L13.7649 27.2752ZM26.1684 38.2309H18.6547V43.3663H24.9981V45.9444H18.6547V53.0102H15.4934V35.657H26.1643V38.2268L26.1684 38.2309ZM24.5816 29.8325C23.7944 30.1771 22.9031 30.3514 21.9118 30.3514C20.9205 30.3514 20.0292 30.1771 19.2378 29.8325C18.4465 29.4879 17.7717 29.0147 17.2178 28.4127C16.6638 27.8107 16.239 27.105 15.9433 26.2996C15.6476 25.4901 15.4976 24.6224 15.4976 23.6966V12.9941H16.1807V23.6717C16.1807 24.5186 16.3098 25.3074 16.5722 26.0505C16.8305 26.7895 17.2095 27.4329 17.7009 27.9809C18.1924 28.5289 18.7922 28.9607 19.5044 29.272C20.2124 29.5834 21.0205 29.7412 21.9201 29.7412C22.8198 29.7412 23.6236 29.5834 24.3275 29.272C25.0356 28.9607 25.6312 28.5289 26.1226 27.9851C26.6141 27.4412 26.9889 26.8019 27.2513 26.0671C27.5096 25.3323 27.6429 24.5435 27.6429 23.6966V12.9941H28.3385V23.6966C28.3385 24.6224 28.1885 25.4901 27.8928 26.2996C27.5971 27.1091 27.1681 27.8149 26.61 28.4127C26.0518 29.0147 25.3813 29.4879 24.5899 29.8325H24.5816ZM41.6707 45.9527C41.6707 46.9739 41.5083 47.9205 41.1834 48.784C40.8586 49.6516 40.3962 50.3989 39.7923 51.0299C39.1884 51.6609 38.4512 52.1508 37.5848 52.5037C36.7185 52.8566 35.7439 53.0309 34.661 53.0309C33.5781 53.0309 32.5909 52.8566 31.7246 52.5037C30.8583 52.1508 30.1252 51.6609 29.5171 51.0299C28.9132 50.3989 28.4467 49.6516 28.126 48.784C27.8012 47.9163 27.6387 46.9739 27.6387 45.9527V35.6653H30.7875V45.9402C30.7875 46.5961 30.8749 47.1898 31.0499 47.7212C31.2248 48.2526 31.4789 48.7051 31.8121 49.0829C32.1453 49.4607 32.5493 49.7513 33.0282 49.9547C33.5072 50.1581 34.0529 50.2619 34.661 50.2619C35.2691 50.2619 35.8147 50.1581 36.2937 49.9547C36.7727 49.7471 37.1766 49.4607 37.5057 49.087C37.8347 48.7134 38.0846 48.265 38.2596 47.7336C38.4345 47.2023 38.522 46.6086 38.522 45.9527V35.6653H41.6707V45.9527ZM53.058 53.0226H43.1451V35.6695H46.2939V50.3574H53.058V53.0226ZM64.441 53.0143H54.5282V35.6612H57.677V50.3491H64.441V53.0143ZM63.8829 30.3473C63.7913 30.3473 63.7121 30.3348 63.6413 30.3099C63.5705 30.285 63.5038 30.2269 63.4372 30.1355L57.2938 22.6421C57.2271 22.5508 57.1605 22.4761 57.0897 22.418C57.0189 22.3598 56.9398 22.3142 56.8523 22.2768C56.7648 22.2394 56.6607 22.2145 56.5441 22.1979C56.4233 22.1813 56.2775 22.173 56.1026 22.173H53.5619V30.3473H52.8788V12.99H57.0772C58.9682 12.99 60.4051 13.3553 61.388 14.0901C62.371 14.8208 62.8624 15.9334 62.8624 17.4237C62.8624 18.1087 62.7333 18.7273 62.4793 19.2836C62.2252 19.8399 61.8628 20.3215 61.4005 20.7283C60.9382 21.1352 60.3759 21.459 59.7179 21.7039C59.0556 21.9447 58.3267 22.0941 57.527 22.144C57.677 22.227 57.8186 22.3515 57.9602 22.5134L64.4368 30.3514H63.8787L63.8829 30.3473Z" fill="black"/>
<path d="M36.0688 22.1895C36.7268 21.9612 37.2808 21.6415 37.739 21.2388C38.1971 20.8361 38.5512 20.3587 38.7969 19.8066C39.0426 19.2544 39.1676 18.6608 39.1676 18.0297C39.1676 16.5643 38.7261 15.4475 37.8431 14.6836C36.9601 13.9198 35.6315 13.5337 33.853 13.5337H30.371V22.5341H33.853C34.6693 22.5341 35.4065 22.4178 36.0646 22.1895H36.0688Z" fill="black"/>
</svg>
