<svg width="134" height="116" viewBox="0 0 134 116" fill="none" xmlns="http://www.w3.org/2000/svg">
<g clip-path="url(#clip0_18_159)">
<path d="M129.913 34.6426C127.152 26.917 123.171 19.0284 117.07 13.3388C111.215 7.87588 103.629 4.63483 95.8943 2.73912C87.9916 0.805192 79.7022 -0.0738662 71.5649 0.0051216C55.4192 0.163097 38.7965 4.38003 25.8273 14.1898C19.2293 19.1788 13.5569 25.5156 9.45216 32.6933C3.39559 41.4712 -0.229582 51.8186 0.0102051 62.589C0.180377 70.1871 2.14251 77.803 5.98427 84.4049C10.0271 91.3533 16.1817 96.7525 23.1175 100.794C30.3962 105.036 38.4948 108.076 46.5702 110.468C55.1665 113.014 64.049 114.723 72.983 115.575C81.3601 116.372 90.0491 116.183 98.1813 113.85C105.834 111.653 112.739 107.467 118.153 101.685C128.921 90.1863 133.969 74.1467 134.002 58.6701C134.02 50.5369 132.657 42.3146 129.916 34.6426H129.913Z" fill="white"/>
<path d="M57.7862 66.9154H54.7386V66.2937C54.7386 65.1446 54.9475 64.3725 55.3677 63.9776C55.788 63.5827 56.5873 63.3763 57.7501 63.3763C57.9023 63.3763 57.9796 63.3024 57.9796 63.1699V62.8488C57.9796 62.6985 57.9023 62.6221 57.7501 62.6221H57.6161C56.2624 62.6399 55.311 62.9049 54.7567 63.4502C54.2049 63.9954 53.9187 64.9382 53.9187 66.2937V66.9154H51.9566C51.8044 66.9154 51.7271 66.9893 51.7271 67.1218V67.4429C51.7271 67.5754 51.8018 67.6493 51.9566 67.6493H53.9187V76.3303C53.9187 76.4806 53.996 76.557 54.1482 76.557H54.5091C54.6613 76.557 54.7386 76.4832 54.7386 76.3303V67.6493H57.7862C57.9383 67.6493 58.0157 67.5754 58.0157 67.4429V67.1218C58.0157 66.9893 57.9383 66.9154 57.7862 66.9154Z" fill="black"/>
<path d="M62.8321 66.6326C61.0221 66.6326 59.7845 67.2925 59.078 68.6276C59.0006 68.7601 59.0393 68.8723 59.1914 68.9487L59.4957 69.0608C59.6298 69.1169 59.7252 69.0786 59.7999 68.9665C60.3723 67.8938 61.3624 67.3664 62.7908 67.3664C65.0211 67.3664 65.707 68.4595 65.707 70.2864V71.3209C64.3739 71.1884 63.4406 71.1145 62.8862 71.1145C59.9134 71.1145 58.7505 71.8687 58.7505 73.9581C58.7505 74.9569 59.0367 75.6729 59.6091 76.1238C60.1815 76.5952 61.249 76.8194 62.8115 76.8194C64.0697 76.8194 65.0778 76.6487 65.841 76.3302C66.3747 76.1035 66.5269 75.9149 66.5269 75.2575V70.3042C66.5269 69.1933 66.2613 68.2888 65.7276 67.6314C65.1758 66.9714 64.2218 66.6326 62.8321 66.6326ZM65.7095 75.069C65.7095 75.52 65.6528 75.6142 65.2712 75.7646C64.624 76.0092 63.7861 76.1417 62.7547 76.1417C61.5171 76.1417 60.6972 75.9531 60.2589 75.5964C59.8206 75.2397 59.5911 74.6919 59.5911 73.9402C59.5911 72.3783 60.4471 71.7948 62.8115 71.7948C63.3452 71.7948 64.3172 71.8687 65.707 72.0012V75.0715L65.7095 75.069Z" fill="black"/>
<path d="M76.2653 73.6929C76.1132 73.6369 76.0178 73.6929 75.9611 73.8433C75.5228 75.3695 74.5327 76.0829 72.7227 76.0829C70.6651 76.0829 69.5023 74.9899 69.5023 73.1833V70.2455C69.5023 68.439 70.6084 67.3637 72.7227 67.3637C74.5713 67.3637 75.466 68.0033 75.9224 69.4913C75.9791 69.6416 76.0745 69.6977 76.2267 69.6416L76.549 69.5295C76.683 69.4734 76.7398 69.3588 76.683 69.2085C76.1699 67.4937 74.873 66.6299 72.7588 66.6299C70.0902 66.6299 68.7004 67.9676 68.7004 70.2837V73.1655C68.7004 75.4816 70.1108 76.8193 72.7227 76.8193C74.8369 76.8193 76.1906 75.9148 76.7423 74.1082C76.7991 73.9758 76.7604 73.8636 76.6083 73.8076L76.2653 73.6955V73.6929Z" fill="black"/>
<path d="M83.6549 66.9152H80.6253V64.8641C80.6253 64.7316 80.548 64.6577 80.3959 64.6577H80.0349C79.8828 64.6577 79.8054 64.7342 79.8054 64.8641V66.9152H77.7479C77.6138 66.9152 77.539 66.9891 77.539 67.1216V67.4427C77.539 67.5752 77.6164 67.6491 77.7479 67.6491H79.8054V73.1298C79.8054 74.5618 80.0916 75.5402 80.6434 76.0472C81.1952 76.5747 82.1852 76.8371 83.6162 76.8193C83.7684 76.8193 83.8457 76.7454 83.8457 76.5925V76.2715C83.8457 76.1211 83.7684 76.0447 83.6162 76.0447C82.4534 76.0447 81.6541 75.8562 81.2545 75.4612C80.8342 75.0841 80.6253 74.2942 80.6253 73.1069V67.6465H83.6549C83.807 67.6465 83.8844 67.5726 83.8844 67.4401V67.1191C83.8844 66.9866 83.8096 66.9127 83.6549 66.9127V66.9152Z" fill="black"/>
<path d="M89.1236 66.6326C86.6278 66.6326 85.0472 67.9117 85.0472 69.9475V73.5249C85.0472 75.5582 86.6278 76.8194 89.1236 76.8194C91.6195 76.8194 93.2206 75.5582 93.2206 73.5249V69.9475C93.2206 67.8938 91.6401 66.6326 89.1236 66.6326ZM92.4007 73.5249C92.4007 75.1072 91.1038 76.0856 89.1236 76.0856C87.1434 76.0856 85.8646 75.0868 85.8646 73.5249V69.9297C85.8646 68.3678 87.1615 67.3689 89.1236 67.3689C91.0858 67.3689 92.4007 68.3474 92.4007 69.9297V73.5249Z" fill="black"/>
<path d="M100.249 66.6324H99.6588C98.3619 66.6503 97.2403 66.8388 96.2683 67.2338C95.6778 67.4784 95.5437 67.6848 95.5437 68.2682V76.3275C95.5437 76.4779 95.6211 76.5543 95.7732 76.5543H96.1548C96.2889 76.5543 96.3637 76.4804 96.3637 76.3275V68.495C96.3637 68.2122 96.4977 68.0058 96.7633 67.8733C97.6013 67.5523 98.5553 67.3841 99.6408 67.3841H100.249C100.383 67.3841 100.458 67.3077 100.458 67.1573V66.8567C100.458 66.7063 100.381 66.6299 100.249 66.6299V66.6324Z" fill="black"/>
<path d="M109.565 66.9154H109.183C109.031 66.9154 108.954 66.9893 108.954 67.1218V75.3136C107.868 75.7467 106.78 75.9531 105.697 75.9531C103.735 75.9531 102.743 74.9747 102.743 73.0153V67.1218C102.743 66.9893 102.665 66.9154 102.513 66.9154H102.152C102 66.9154 101.923 66.9893 101.923 67.1218V73.0535C101.923 75.4817 103.16 76.687 105.62 76.687C106.705 76.687 107.83 76.4806 108.954 76.0652V77.2883C108.954 79.4923 107.907 80.5828 105.79 80.5828C104.4 80.5828 103.408 79.9815 102.799 78.7941C102.704 78.6616 102.59 78.6234 102.438 78.6999L102.191 78.8324C102.018 78.9063 101.982 79.0209 102.095 79.1891C102.82 80.6007 104.057 81.3167 105.811 81.3167C108.459 81.3167 109.774 79.9611 109.774 77.2501V67.1192C109.774 66.9867 109.696 66.9128 109.565 66.9128V66.9154Z" fill="black"/>
<path d="M108.711 45.7593H105.445C104.609 45.7593 104.357 45.8842 103.975 46.5594L100.252 54.3155L96.5545 46.5339C96.1754 45.9071 95.8944 45.7568 94.9842 45.7568H91.8954C91.06 45.7568 90.7815 46.0065 90.7815 46.8091V51.1942C89.3763 47.8334 86.0296 45.4663 82.1234 45.4663C78.2172 45.4663 75.1025 47.678 73.6199 50.8579C72.1374 47.678 68.8912 45.4663 65.1165 45.4663C61.3418 45.4663 58.0956 47.678 56.6131 50.8579C55.1305 47.678 51.8844 45.4663 48.1096 45.4663C42.9349 45.4663 38.7399 49.6119 38.7399 54.7257C38.7399 55.0952 38.7682 55.4544 38.8095 55.8112C38.3686 55.164 37.742 54.6518 36.9118 54.29V54.1652C38.1778 53.3141 38.8121 52.0885 38.8121 50.5113C38.8121 47.4334 36.6591 45.7568 32.9876 45.7568H25.2886C24.4532 45.7568 24.1747 46.032 24.1747 46.8575V62.4461C24.1747 63.2717 24.4532 63.5469 25.2886 63.5469H33.0881C35.0116 63.5469 36.5818 63.1214 37.773 62.2449C38.9642 61.3683 39.5701 60.1428 39.5701 58.5655C39.5701 58.5477 39.5675 58.5324 39.5675 58.5146C41.0346 61.7353 44.304 63.98 48.1071 63.98C51.9101 63.98 55.1279 61.7684 56.6105 58.5885C58.0931 61.7684 61.3392 63.98 65.1139 63.98C68.8886 63.98 72.1348 61.7684 73.6174 58.5885C75.0999 61.7684 78.3461 63.98 82.1208 63.98C85.8955 63.98 89.3763 61.6129 90.7789 58.2521V62.4946C90.7789 63.2946 91.0574 63.5443 91.8928 63.5443H95.2601C96.0955 63.5443 96.374 63.2946 96.374 62.4946V60.9683C96.374 60.9683 96.374 60.9479 96.374 60.9377V56.252L96.6782 57.1132L97.8179 59.5898C98.0963 60.1147 98.3748 60.316 99.0838 60.316H101.312C101.92 60.316 102.325 60.0663 102.552 59.5898L103.64 57.1132C103.717 56.9323 103.836 56.6418 103.993 56.2443V62.4946C103.993 63.2946 104.271 63.5443 105.107 63.5443H108.704C109.539 63.5443 109.818 63.2946 109.818 62.4946V46.804C109.818 46.0039 109.539 45.7517 108.704 45.7517L108.711 45.7593ZM30.0508 50.1903H31.5695C32.4306 50.1903 32.8612 50.5394 32.8612 51.2655C32.8612 52.0401 32.4564 52.3153 31.5695 52.3153H30.0508V50.1877V50.1903ZM32.0748 59.0981H30.0482V56.7947H32.0748C32.985 56.7947 33.4413 57.1692 33.4413 57.9209C33.4413 58.7974 33.0108 59.0981 32.0748 59.0981ZM48.1071 56.68C47.0164 56.68 46.132 55.8061 46.132 54.7283C46.132 53.6505 47.0164 52.7765 48.1071 52.7765C49.1977 52.7765 50.0821 53.6505 50.0821 54.7283C50.0821 55.8061 49.1977 56.68 48.1071 56.68ZM65.1165 56.68C64.0259 56.68 63.1415 55.8061 63.1415 54.7283C63.1415 53.6505 64.0259 52.7765 65.1165 52.7765C66.2072 52.7765 67.0915 53.6505 67.0915 54.7283C67.0915 55.8061 66.2072 56.68 65.1165 56.68ZM82.1259 56.68C81.0353 56.68 80.1509 55.8061 80.1509 54.7283C80.1509 53.6505 81.0353 52.7765 82.1259 52.7765C83.2166 52.7765 84.101 53.6505 84.101 54.7283C84.101 55.8061 83.2166 56.68 82.1259 56.68Z" fill="black"/>
</g>
<defs>
<clipPath id="clip0_18_159">
<rect width="134" height="116" fill="white"/>
</clipPath>
</defs>
</svg>
