<svg width="150" height="58" viewBox="0 0 150 58" fill="none" xmlns="http://www.w3.org/2000/svg">
<path d="M74.5334 19.8131C73.9628 17.4302 75.4372 15.0597 77.8487 14.5117C80.227 13.9429 82.6052 15.4831 83.1259 17.8619C83.684 20.2532 82.2095 22.607 79.7813 23.1426C77.4031 23.6491 75.0457 22.1919 74.5375 19.8131" fill="black"/>
<path d="M84.8877 15.7986C83.7631 10.6424 79.6356 6.83552 74.7375 5.89729L74.3085 1.32651C74.2335 0.52528 73.513 -0.0683777 72.7091 0.00634883L69.2521 0.330163C68.4483 0.40489 67.8527 1.12309 67.9277 1.92433L68.34 6.32904C68.24 6.36225 68.1442 6.39547 68.0443 6.42868L65.2162 2.70896C64.7289 2.06548 63.8043 1.94094 63.1587 2.42666L60.3931 4.51485C59.7475 5.00057 59.6226 5.9222 60.1099 6.56568L62.7005 9.97818C62.6005 10.0903 62.5006 10.2024 62.4048 10.3186L58.9895 8.07681C58.3147 7.63261 57.3984 7.82357 56.9569 8.49611L55.0493 11.3855C54.6037 12.0581 54.7953 12.9714 55.47 13.4115L59.6476 16.1556C59.3268 17.8743 59.3476 19.6885 59.785 21.5068C61.2719 28.4481 68.1609 32.7117 75.1123 31.2337C82.2137 29.6645 86.5204 22.7979 84.8877 15.8069V15.7986ZM77.8571 26.2935C73.6212 27.1943 69.4187 24.5955 68.5149 20.3652C67.5028 16.1224 70.1268 11.9003 74.4168 10.9247C78.6568 9.91177 82.8926 12.6559 83.8173 16.8904C84.8127 21.1498 82.1887 25.3386 77.8571 26.2935Z" fill="black"/>
<path d="M6.01849 50.8037C2.47404 50.8037 0 48.2796 0 44.6637C0 41.0478 2.46154 38.6191 5.98933 38.6191C7.89692 38.6191 9.58377 39.5076 10.3959 40.944L10.4168 39.0343C10.4168 38.9097 10.5209 38.8101 10.6458 38.8101H12.0953C12.2202 38.8101 12.3244 38.9097 12.3244 39.0384V50.2931C12.3244 50.4176 12.2244 50.5214 12.0953 50.5214H10.6209C10.4959 50.5214 10.3959 50.4218 10.3918 50.2972L10.3501 48.4332C9.34634 50.181 7.45543 50.8037 6.02266 50.8037H6.01849ZM6.1351 40.4458C6.10594 40.4624 6.06846 40.4707 6.03514 40.4707C3.64024 40.5081 1.89926 42.3015 1.89926 44.7384C1.89926 47.1753 3.66939 49.031 6.11011 49.031C7.42209 49.031 8.52584 48.5661 9.29637 47.686C9.97944 46.9055 10.3585 45.8593 10.3585 44.7343C10.3585 42.671 9.03813 40.4499 6.1351 40.4499V40.4458Z" fill="black"/>
<path d="M20.6336 57.4878C18.6219 57.4878 16.9267 56.8899 15.8605 55.7981C15.0691 54.9927 14.6401 53.9258 14.6193 52.7177C14.6193 52.6554 14.6443 52.5973 14.6859 52.5558C14.7276 52.5101 14.7859 52.4852 14.8484 52.4852H16.277C16.3977 52.4852 16.4977 52.5807 16.506 52.7011C16.631 54.8848 18.7343 55.6902 20.6627 55.7109C22.662 55.7109 24.7986 54.9803 24.7986 52.9377C24.7986 50.8952 22.7328 50.1189 20.6836 50.1189C16.8559 50.1189 14.4777 47.902 14.4777 44.3359C14.4777 40.5248 17.6014 38.528 20.6836 38.528C21.7082 38.528 23.1368 38.7978 24.0114 39.4039L25.1277 38.0589C25.1735 38.0049 25.2401 37.9758 25.3026 37.9758C25.3526 37.9758 25.4026 37.9924 25.4442 38.0257L26.4646 38.831C26.5146 38.8684 26.5438 38.9265 26.5521 38.9888C26.5563 39.0511 26.5396 39.1092 26.498 39.159L25.3192 40.5456C26.2314 41.5752 26.8395 42.613 26.8395 44.34C26.8395 46.0671 25.969 48.3213 23.5325 49.1059C26.2064 49.8823 26.7687 51.6093 26.7687 52.9211C26.7687 56.0638 23.5866 57.4961 20.6336 57.4961V57.4878ZM20.6794 40.3007C18.6177 40.3007 16.3977 41.5627 16.3977 44.3317C16.4436 46.806 18.1304 48.4085 20.7044 48.4085C23.116 48.4085 24.9361 46.6649 24.9361 44.3566C24.9361 41.571 22.7286 40.3048 20.6794 40.3048V40.3007Z" fill="black"/>
<path d="M34.4657 50.7332C30.7672 50.7332 28.2806 48.2755 28.2806 44.618C28.2806 40.9606 30.8421 38.5486 34.3699 38.5486C36.2775 38.5486 37.8436 39.1547 38.889 40.3047C39.9469 41.4629 40.4217 43.1609 40.2634 45.2117C40.2551 45.3279 40.1552 45.4234 40.0344 45.4234H30.2549C30.4631 47.5199 32.1749 48.9314 34.5115 48.9314C35.6236 48.9314 37.2188 48.5204 38.0976 47.6237C38.1435 47.578 38.2017 47.5531 38.2601 47.5531C38.3142 47.5531 38.3683 47.5739 38.4142 47.6112L39.3721 48.4789C39.418 48.5204 39.4429 48.5785 39.4471 48.6367C39.4471 48.6989 39.4304 48.7571 39.3846 48.8027C38.2559 50.0067 36.4191 50.729 34.4615 50.729L34.4657 50.7332ZM34.4157 40.3005C32.2333 40.3005 30.5631 41.6995 30.2549 43.7836H38.3892C38.2892 41.5999 36.8023 40.3005 34.4199 40.3005H34.4157Z" fill="black"/>
<path d="M51.5924 50.5214C51.4674 50.5214 51.3633 50.4218 51.3633 50.2931V44.0742C51.3633 41.8241 49.9972 40.425 47.7938 40.425C45.7322 40.4458 44.1786 42.0898 44.1786 44.2402V50.2931C44.1786 50.4176 44.0745 50.5214 43.9495 50.5214H42.4793C42.3543 50.5214 42.2502 50.4218 42.2502 50.2931V39.0135C42.2502 38.889 42.3543 38.7852 42.4793 38.7852H43.8162C43.937 38.7852 44.037 38.8807 44.0453 39.0011L44.1286 40.6575C45.1032 39.3249 46.4943 38.6191 48.1479 38.6191C51.2841 38.6191 53.3084 40.7488 53.3084 44.0493V50.2931C53.3084 50.4176 53.2084 50.5214 53.0793 50.5214H51.584H51.5924Z" fill="black"/>
<path d="M61.4093 50.7332C58.3564 50.7332 55.2742 48.8567 55.2742 44.6637C55.2742 41.0353 57.7399 38.5942 61.4093 38.5942C62.992 38.5942 64.329 39.1173 65.4952 40.1884C65.541 40.2299 65.566 40.288 65.5702 40.3503C65.5702 40.4126 65.5494 40.4707 65.5077 40.5164L64.5831 41.4712C64.5373 41.5169 64.479 41.5418 64.4206 41.5418C64.3665 41.5418 64.3124 41.521 64.2707 41.4837C63.5127 40.8236 62.4839 40.4458 61.4593 40.4458C58.9811 40.4458 57.2526 42.1811 57.2526 44.6678C57.2526 47.5822 59.3518 48.8857 61.4385 48.8857C62.5547 48.8857 63.5918 48.5038 64.3498 47.8064C64.3957 47.7648 64.4498 47.7482 64.5039 47.7482C64.5581 47.7482 64.6206 47.769 64.6664 47.8147L65.6285 48.7737C65.6702 48.8193 65.6951 48.8774 65.6951 48.9397C65.6951 49.002 65.666 49.0601 65.6243 49.1016C64.4581 50.1893 63.042 50.7414 61.4177 50.7414L61.4093 50.7332Z" fill="black"/>
<path d="M72.7674 50.7332C69.0689 50.7332 66.5823 48.2755 66.5823 44.618C66.5823 40.9606 69.1438 38.5486 72.6716 38.5486C74.5792 38.5486 76.1453 39.1547 77.1907 40.3047C78.2486 41.4629 78.7234 43.1609 78.5652 45.2117C78.5568 45.3279 78.4569 45.4234 78.3361 45.4234H68.5566C68.7648 47.5199 70.4767 48.9314 72.8132 48.9314C73.9253 48.9314 75.5205 48.5204 76.3993 47.6237C76.4452 47.578 76.5035 47.5531 76.5618 47.5531C76.6159 47.5531 76.6701 47.5739 76.7159 47.6112L77.6738 48.4789C77.7197 48.5204 77.7446 48.5785 77.7488 48.6367C77.7488 48.6989 77.728 48.7571 77.6863 48.8027C76.5576 50.0067 74.7167 50.729 72.7633 50.729L72.7674 50.7332ZM72.7216 40.3005C70.5391 40.3005 68.8689 41.6995 68.5607 43.7836H76.6909C76.5909 41.5999 75.104 40.3005 72.7216 40.3005Z" fill="black"/>
<path d="M96.0291 50.5214C95.9042 50.5214 95.8001 50.4218 95.8001 50.2931V44.2153C95.8001 42.4094 94.9962 41.3716 93.5884 41.3716C92.1806 41.3716 91.0436 42.6129 91.0436 44.2651V50.2972C91.0436 50.4218 90.9394 50.5256 90.8145 50.5256H88.3696C88.2447 50.5256 88.1405 50.4259 88.1405 50.2972V44.2651C88.1405 42.8495 87.3908 41.3259 85.7373 41.3259C84.0838 41.3259 83.2383 42.8038 83.2383 44.2651V50.2972C83.2383 50.4218 83.1342 50.5256 83.0092 50.5256H80.5643C80.4394 50.5256 80.3353 50.4259 80.3353 50.2972V39.0426C80.3353 38.918 80.4394 38.8143 80.5643 38.8143H82.826C82.9384 38.8143 83.0342 38.8973 83.0509 39.0094L83.2341 40.2382C83.8547 39.0509 85.2375 38.6274 86.3246 38.6274C87.2867 38.6274 89.011 38.9097 89.7982 40.807C90.727 39.3332 91.9391 38.6731 93.7217 38.6731C96.9746 38.6731 98.6906 40.5911 98.6906 44.2195V50.2972C98.6906 50.4218 98.5865 50.5256 98.4615 50.5256H96.0167L96.0291 50.5214Z" fill="black"/>
<path d="M107.658 50.7788C106.483 50.7788 104.876 50.455 103.876 48.9065L103.709 50.318C103.697 50.4342 103.597 50.5173 103.485 50.5173H101.202C101.077 50.5173 100.973 50.4176 100.973 50.2889V34.1729C100.973 34.0484 101.077 33.9446 101.202 33.9446H103.647C103.772 33.9446 103.876 34.0442 103.876 34.1729V40.4167C104.605 39.1381 106.604 38.5444 107.729 38.5444C111.411 38.5444 113.697 40.89 113.697 44.6595C113.697 48.4291 111.269 50.7747 107.658 50.7747V50.7788ZM107.466 41.2512C105.525 41.2512 104.063 42.7166 104.063 44.6637C104.063 46.6107 105.492 48.1011 107.466 48.1011C109.441 48.1011 110.794 46.6232 110.794 44.6637C110.794 42.7042 109.424 41.2512 107.466 41.2512Z" fill="black"/>
<path d="M120.74 50.8743C118.991 50.8743 117.512 50.3305 116.459 49.2968C115.347 48.2091 114.759 46.6066 114.759 44.6637C114.759 40.9481 117.138 38.5486 120.815 38.5486H120.869C122.452 38.5486 123.956 39.3125 124.605 40.4458L124.689 39.0468C124.697 38.9264 124.797 38.8309 124.918 38.8309H127.259C127.384 38.8309 127.488 38.9347 127.488 39.0592V50.289C127.488 50.4135 127.384 50.5173 127.259 50.5173H124.964C124.847 50.5173 124.747 50.4259 124.739 50.3097L124.614 48.811C123.977 50.1312 122.215 50.8453 120.811 50.8743H120.753H120.74ZM121.132 41.135C119.087 41.135 117.658 42.588 117.658 44.6679C117.658 46.7477 119.087 48.2215 121.132 48.2215C122.19 48.2215 123.077 47.8396 123.702 47.1131C124.251 46.4696 124.56 45.6061 124.56 44.6762C124.56 42.9699 123.489 41.1308 121.136 41.1308L121.132 41.135Z" fill="black"/>
<path d="M130.491 50.7331C130.041 50.7331 129.549 50.4425 129.549 49.8074C129.549 49.1722 130.037 48.8816 130.491 48.8816C130.945 48.8816 131.432 49.1722 131.432 49.8074C131.432 50.4425 130.945 50.7331 130.491 50.7331Z" fill="black"/>
<path d="M135.618 50.5215C135.493 50.5215 135.389 50.4219 135.389 50.2932V39.9228H133.215C133.09 39.9228 132.986 39.8231 132.986 39.6944V39.1298C132.986 39.0053 133.09 38.9015 133.215 38.9015H135.389V37.6934C135.389 35.0739 136.605 33.6873 138.908 33.6873C139.666 33.6873 140.391 33.9156 141.053 34.3639C141.157 34.4345 141.182 34.5757 141.116 34.6795L140.787 35.1735C140.741 35.2399 140.67 35.2731 140.595 35.2731C140.558 35.2731 140.516 35.2648 140.483 35.2441C139.945 34.9368 139.508 34.7583 138.858 34.7583C137.309 34.7583 136.526 35.7464 136.526 37.6976V38.9057H140.174C140.299 38.9057 140.403 39.0094 140.403 39.134V39.6986C140.403 39.8231 140.304 39.9269 140.174 39.9269H136.526V50.2973C136.526 50.4218 136.422 50.5256 136.297 50.5256H135.614L135.618 50.5215Z" fill="black"/>
<path d="M142.374 50.5214C142.249 50.5214 142.144 50.4218 142.144 50.2931V39.0384C142.144 38.9139 142.249 38.8101 142.374 38.8101H143.015C143.14 38.8101 143.24 38.9097 143.244 39.0301L143.286 40.8941C143.927 39.5117 145.385 38.6897 147.184 38.6897H147.301C148.067 38.6897 148.809 38.8807 149.508 39.2626C149.562 39.2917 149.6 39.3415 149.617 39.3996C149.633 39.4577 149.625 39.52 149.596 39.574L149.292 40.122C149.25 40.1967 149.171 40.2382 149.092 40.2382C149.054 40.2382 149.021 40.2299 148.983 40.2091C148.442 39.9227 147.834 39.7774 147.18 39.7774C145.006 39.8023 143.302 41.521 143.302 43.6881V50.2889C143.302 50.4135 143.202 50.5172 143.073 50.5172H142.365L142.374 50.5214Z" fill="black"/>
</svg>
